<?xml version="1.0" standalone="no"?>
<!DOCTYPE svg PUBLIC "-//W3C//DTD SVG 20010904//EN"
 "http://www.w3.org/TR/2001/REC-SVG-20010904/DTD/svg10.dtd">
<svg version="1.0" xmlns="http://www.w3.org/2000/svg"
 width="150.000000pt" height="150.000000pt" viewBox="0 0 150.000000 150.000000"
 preserveAspectRatio="xMidYMid meet">
<metadata>
Created by potrace 1.11, written by Peter Selinger 2001-2013
</metadata>
<g transform="translate(0.000000,150.000000) scale(0.100000,-0.100000)"
fill="#000000" stroke="none">
<path d="M4 750 c0 -415 2 -720 3 -677 l4 77 87 -1 c48 -1 119 -4 157 -8 56
-5 65 -8 43 -14 -30 -8 -38 -27 -13 -27 8 0 15 -6 15 -14 0 -8 19 -17 50 -23
28 -6 50 -7 50 -4 0 9 119 6 149 -4 16 -5 21 -4 17 4 -5 8 0 8 18 0 18 -9 36
-9 67 -1 23 6 48 8 57 5 9 -4 13 -2 9 4 -4 7 11 7 46 1 71 -13 272 -10 328 4
46 11 90 52 52 48 -45 -5 -48 0 -17 29 24 23 30 36 27 55 -3 15 -9 28 -13 31
-4 3 -5 24 -3 47 4 34 0 49 -17 71 -39 49 -136 29 -175 -35 -15 -26 -15 -30 0
-56 9 -15 31 -36 48 -45 20 -12 27 -21 19 -26 -6 -4 -12 -21 -14 -39 -2 -23
-9 -34 -28 -41 -38 -14 -109 -12 -148 4 -19 8 -49 15 -67 15 -18 0 -38 7 -45
15 -7 8 -28 15 -47 15 -19 0 -43 5 -53 10 -16 8 -18 8 -14 -5 4 -10 0 -15 -10
-15 -9 0 -16 5 -16 10 0 7 -6 7 -17 1 -10 -5 -29 -8 -43 -7 -20 1 -26 7 -28
31 -2 17 -8 36 -14 42 -6 7 -8 20 -4 28 3 8 1 15 -5 15 -7 0 -8 7 -4 18 3 9 7
22 8 27 2 12 55 53 78 60 9 3 19 15 22 26 9 35 25 12 21 -29 -5 -55 25 -86 75
-79 45 6 116 66 131 111 16 48 40 59 84 35 29 -15 36 -16 36 -5 0 8 -7 19 -15
23 -8 5 -16 17 -18 28 -2 11 -9 30 -16 43 -13 24 -17 151 -5 196 5 20 13 26
33 26 32 0 91 -56 91 -87 0 -25 -36 -73 -56 -73 -8 0 -24 -9 -36 -19 -18 -17
-19 -22 -7 -34 8 -8 24 -19 36 -25 17 -10 23 -8 35 10 14 21 15 21 64 4 81
-29 94 -30 94 -11 0 9 -10 26 -22 37 -18 15 -19 18 -5 14 14 -5 13 1 -8 32
-31 46 -34 76 -5 67 13 -4 31 0 46 9 30 20 24 57 -15 95 -30 29 -31 30 -66 36
-11 2 -28 14 -38 27 -10 13 -25 31 -33 41 -8 10 -19 29 -24 43 -5 13 -15 24
-21 24 -6 0 -8 7 -5 16 7 19 -15 92 -30 98 -16 6 -17 -99 -1 -112 12 -10 18
-12 37 -12 13 0 13 -67 0 -75 -6 -4 -29 3 -51 14 -22 12 -46 21 -53 21 -9 0
-15 18 -19 58 -2 31 -10 89 -18 129 -12 65 -11 76 4 109 16 32 21 35 45 30
l27 -6 -23 19 c-47 40 -82 -10 -82 -118 0 -67 -21 -177 -37 -192 -5 -4 -30 -9
-58 -12 -80 -8 -107 -18 -151 -53 -38 -31 -43 -32 -63 -18 -36 25 -23 -3 16
-35 36 -29 36 -31 25 -68 -6 -21 -14 -48 -18 -61 -7 -29 -38 -25 -42 5 -2 12
-16 36 -32 53 -16 17 -31 36 -33 43 -3 6 -6 3 -6 -7 -1 -15 -4 -17 -12 -9 -8
8 -20 8 -34 3 -13 -5 -26 -6 -29 -3 -10 10 -7 -52 3 -63 5 -5 11 -18 13 -29 1
-11 6 -22 9 -25 3 -3 16 -27 29 -55 13 -27 29 -57 36 -65 9 -11 10 -28 4 -59
-7 -41 -31 -72 -38 -51 -2 6 -10 10 -18 10 -8 0 -14 4 -14 10 0 5 -8 17 -19
27 -10 10 -23 34 -30 53 -6 19 -18 58 -27 85 -20 61 -34 259 -21 298 5 15 15
27 23 27 8 0 14 5 14 10 0 14 -54 12 -68 -2 -15 -15 -15 -68 -1 -159 6 -39 9
-73 6 -75 -2 -3 -41 -6 -86 -8 l-81 -4 -3 411 c-1 227 -2 72 -3 -343z m778 -3
c16 -13 23 -41 20 -81 -2 -19 -3 -19 -22 2 -11 12 -20 25 -20 31 0 5 -4 11 -9
13 -4 2 -12 13 -15 26 -6 17 -3 22 11 22 10 0 26 -6 35 -13z m-53 -119 c73
-43 105 -88 64 -88 -10 0 -26 -7 -35 -14 -13 -10 -32 -11 -69 -5 -28 5 -52 10
-53 11 0 2 -6 12 -12 24 -13 23 -7 75 10 86 20 14 58 8 95 -14z m-294 2 c3 -5
1 -10 -4 -10 -6 0 -11 5 -11 10 0 6 2 10 4 10 3 0 8 -4 11 -10z m560 -50 c3
-5 1 -10 -4 -10 -6 0 -11 5 -11 10 0 6 2 10 4 10 3 0 8 -4 11 -10z"/>
<path d="M1348 1283 c-33 -9 -18 -24 20 -21 20 2 37 8 37 13 0 11 -31 16 -57
8z"/>
<path d="M1244 749 c-2 -4 6 -10 19 -13 21 -6 21 -7 5 -20 -22 -16 -23 -26 -3
-26 8 0 14 -5 13 -10 -2 -6 11 -18 27 -28 17 -9 34 -23 38 -30 5 -7 12 -10 18
-7 5 4 9 -1 9 -9 0 -9 8 -16 18 -16 24 0 59 -36 41 -42 -9 -3 -9 -9 0 -26 6
-12 16 -22 21 -22 6 0 10 -6 10 -13 0 -7 9 -18 20 -25 20 -12 20 -10 20 128 0
159 13 140 -102 144 -31 1 -63 8 -71 14 -15 13 -75 13 -83 1z"/>
<path d="M1150 736 c0 -23 19 -29 35 -12 9 8 22 13 30 10 8 -4 15 -1 15 5 0 6
-17 11 -40 11 -28 0 -40 -4 -40 -14z"/>
<path d="M1180 700 c-15 -9 -7 -52 15 -73 8 -8 11 -17 8 -21 -4 -3 -2 -6 3 -6
9 0 17 -15 54 -92 7 -15 17 -25 22 -22 11 7 10 61 -2 69 -5 3 -10 15 -10 26 0
11 -7 19 -16 19 -8 0 -13 4 -9 9 15 25 -42 105 -65 91z"/>
<path d="M1477 423 c-3 -5 0 -21 7 -38 l13 -30 -1 37 c-1 36 -9 48 -19 31z"/>
<path d="M1461 322 c-7 -26 -15 -53 -17 -61 -2 -7 -11 -10 -20 -7 -8 3 -12 2
-9 -4 9 -15 -8 -12 -33 6 -12 8 -22 25 -22 37 0 12 -5 29 -11 37 -8 12 -9 9
-5 -11 3 -14 8 -42 11 -61 6 -34 5 -35 -21 -30 -19 3 -25 1 -20 -6 5 -8 1 -10
-9 -6 -9 4 -21 17 -26 30 -9 26 -39 33 -39 10 0 -7 -11 -30 -25 -50 l-24 -36
154 0 155 0 0 24 c0 13 -7 27 -16 30 -9 4 -14 9 -11 13 4 3 2 12 -4 19 -6 8
-8 26 -4 45 5 21 10 28 15 19 5 -7 6 -18 4 -25 -3 -6 0 -22 5 -36 9 -22 10
-21 10 12 1 20 -5 51 -12 67 l-13 31 -13 -47z"/>
<path d="M1404 317 c3 -10 6 -22 6 -27 0 -4 7 -10 15 -14 16 -6 11 9 -16 44
-9 13 -10 12 -5 -3z"/>
</g>
</svg>
